<svg id="Layer_1" data-name="Layer 1" xmlns="http://www.w3.org/2000/svg" viewBox="0 0 38.77 86.85">
  <defs>
    <style>
      .cls-1 {
        fill: none;
      }

      .cls-2 {
        fill: #0fb75b;
      }
    </style>
  </defs>
  <title>aqi</title>
  <g>
    <path class="cls-1" d="M56,60.61a1.7,1.7,0,0,1-1.18-1.86c0-7.13,0-14.26,0-21.38q0-5.31,0-10.62c0-3.59,0-7.17,0-10.76a5.18,5.18,0,0,0-3.79-5.24c-3.46-.92-6.52,1.59-6.53,5.41,0,13.88,0,27.77,0,41.65a3,3,0,0,1-2,3.24,14.87,14.87,0,0,0-7.53,17.15A15.12,15.12,0,1,0,56,60.61Zm4.54,14.63a3.14,3.14,0,0,1,.56,2.36,11.68,11.68,0,0,1-23-2.51,11.46,11.46,0,0,1,8.5-11.56C47.8,63.22,48,62.7,48,61.63q-.06-20.18,0-40.37a5.62,5.62,0,0,1,0-1.11,1.71,1.71,0,0,1,1.84-1.56,1.67,1.67,0,0,1,1.74,1.65c.07.83.05,1.67.05,2.51q0,21.37,0,42.74A2.22,2.22,0,0,0,52,66.9a8.21,8.21,0,0,1,5.92,7.88c0,.23,0,.46,0,.69a1.18,1.18,0,0,0,.37-.14C59,74.7,60,74.46,60.59,75.24Z" transform="translate(-30.62 -6.58)"/>
    <path d="M60,58.25a2.22,2.22,0,0,1-1.13-2.13c0-6.75,0-13.51,0-20.26s0-13.41,0-20.12A9.13,9.13,0,1,0,40.62,16q0,19.91,0,39.82a2.64,2.64,0,0,1-1.38,2.57A19,19,0,0,0,54.69,92.71c7.69-2.2,12.51-7.36,13.84-15.23C69.9,69.36,66.8,62.89,60,58.25Zm4.6,18.95a15.14,15.14,0,0,1-29.49,1A14.87,14.87,0,0,1,42.64,61a3,3,0,0,0,2-3.24c-.07-13.88,0-27.77,0-41.65,0-3.82,3.06-6.34,6.53-5.41A5.18,5.18,0,0,1,54.9,16c0,3.59,0,7.17,0,10.76s0,7.08,0,10.62c0,7.13,0,14.26,0,21.38A1.7,1.7,0,0,0,56,60.61,15.11,15.11,0,0,1,64.59,77.2Z" transform="translate(-30.62 -6.58)"/>
    <path d="M63.71,22.63a23.74,23.74,0,0,0,4,0,1.72,1.72,0,0,0,1.64-1.91,1.78,1.78,0,0,0-1.74-1.84,18.15,18.15,0,0,0-1.95,0v0c-.6,0-1.21,0-1.81,0A1.8,1.8,0,0,0,62,20.74,1.72,1.72,0,0,0,63.71,22.63Z" transform="translate(-30.62 -6.58)"/>
    <path d="M63.49,29.79a23.41,23.41,0,0,0,4.43,0,1.66,1.66,0,0,0,1.46-1.91,1.75,1.75,0,0,0-1.65-1.76,16.34,16.34,0,0,0-1.94,0h0a18.36,18.36,0,0,0-2.08,0A1.74,1.74,0,0,0,62,27.89,1.63,1.63,0,0,0,63.49,29.79Z" transform="translate(-30.62 -6.58)"/>
    <path d="M67.53,33.34c-1.25,0-2.5,0-3.75,0A1.7,1.7,0,0,0,62,35.18a1.76,1.76,0,0,0,1.77,1.93c.64.06,1.3,0,1.94,0h0c.6,0,1.21,0,1.81,0a1.88,1.88,0,0,0,0-3.76Z" transform="translate(-30.62 -6.58)"/>
    <path d="M58.21,75.33a1.18,1.18,0,0,1-.37.14A8.21,8.21,0,1,1,52,66.9a2.22,2.22,0,0,1-.34-1.41q.06-21.37,0-42.74c0-.84,0-1.68-.05-2.51a1.67,1.67,0,0,0-1.74-1.65A1.71,1.71,0,0,0,48,20.15a5.62,5.62,0,0,0,0,1.11q0,20.18,0,40.37c0,1.07-.2,1.6-1.37,1.91a11.46,11.46,0,0,0-8.5,11.56,11.68,11.68,0,0,0,23,2.51,3.14,3.14,0,0,0-.56-2.36C60,74.46,59,74.7,58.21,75.33Z" transform="translate(-30.62 -6.58)"/>
    <path class="cls-2" d="M52.9,67.56a7.48,7.48,0,0,1,4.72,6.83c0,.35.07.7.12,1.11l.1,0c0-.23,0-.46,0-.69A8.21,8.21,0,0,0,52,66.9,2.21,2.21,0,0,0,52.9,67.56Z" transform="translate(-30.62 -6.58)"/>
    <path class="cls-2" d="M41.45,74.78a8.21,8.21,0,0,0,16.39.69l-.1,0c0-.41-.09-.76-.12-1.11a7.48,7.48,0,0,0-4.72-6.83A2.21,2.21,0,0,1,52,66.9a8.21,8.21,0,0,0-10.5,7.88Z" transform="translate(-30.62 -6.58)"/>
  </g>
</svg>
