<svg id="Layer_1" data-name="Layer 1" xmlns="http://www.w3.org/2000/svg" viewBox="0 0 95.5 95.82">
  <defs>
    <style>
      .cls-1 {
        fill: #f5814b;
      }
    </style>
  </defs>
  <title>bus</title>
  <path class="cls-1" d="M80,90.3c0,1.68,0,3.28,0,4.87a2.41,2.41,0,0,1-2.71,2.73H73.39a2.35,2.35,0,0,1-2.56-2.53c0-1.47,0-2.95,0-4.42,0-.19,0-.39,0-.61H29c0,.21,0,.4,0,.59,0,1.46,0,2.91,0,4.37A2.39,2.39,0,0,1,26.4,97.9H22.3a2.37,2.37,0,0,1-2.52-2.54c0-1.47,0-2.95,0-4.42,0-.19,0-.39,0-.64-1.1,0-2.13-.05-3.16,0a4.35,4.35,0,0,1-4.56-4.57q.06-30.94,0-61.89a2.13,2.13,0,0,0-.05-.7.84.84,0,0,0-1.43-.36A7,7,0,0,0,8,28.37c0,3.06,0,6.11,0,9.17a2.84,2.84,0,0,1-5.58.73,3.77,3.77,0,0,1-.11-1c0-2.82,0-5.64,0-8.46A13.08,13.08,0,0,1,6.49,19.5a16.54,16.54,0,0,1,2.13-1.78A11.25,11.25,0,0,0,11.91,14a1.79,1.79,0,0,0,.17-.78,29.25,29.25,0,0,1,.23-4A9,9,0,0,1,21.16,2.1H74.58c1.53,0,3.06,0,4.58.09a8.77,8.77,0,0,1,7.89,8.15c.1,3.27,1.86,5.41,4.2,7.23a18.66,18.66,0,0,1,4.87,5.3,12.19,12.19,0,0,1,1.6,6c.06,2.82,0,5.64,0,8.46a2.85,2.85,0,0,1-2.86,3A2.91,2.91,0,0,1,92,37.29c0-2.95,0-5.89,0-8.84a7,7,0,0,0-2.54-5.57c-.62-.54-1-.52-1.47.17a5.09,5.09,0,0,0-.91,2.8q0,30,0,60a4.17,4.17,0,0,1-3.48,4.36,19.37,19.37,0,0,1-2.56.07Zm-32.38-75c-5.88-.13-13.46.07-21,.44a29.27,29.27,0,0,0-8.79,1.72,5,5,0,0,0-2.43,1.59,2.51,2.51,0,0,0-.52,1.37q0,16.48,0,33a4.51,4.51,0,0,0,1.34,3.24,7.9,7.9,0,0,0,3.39,2,71.62,71.62,0,0,0,12.78,2.71c3.83.46,7.67.79,11.5,1.18a43.08,43.08,0,0,0,7.9.27c2.86-.24,5.72-.51,8.58-.79a94.63,94.63,0,0,0,11.78-1.54c2.67-.6,5.36-1.21,8-2.07a6.51,6.51,0,0,0,4.65-6.7q0-14.6,0-29.2a4.82,4.82,0,0,0-3.4-5,20.3,20.3,0,0,0-6-1.5c-3.93-.3-7.87-.55-11.82-.64C58.78,15.22,54.07,15.3,47.65,15.3Zm2.09-3.69H65.29a1.35,1.35,0,0,0,1.54-1.54q0-1.47,0-2.95A1.36,1.36,0,0,0,65.3,5.57h-31A1.38,1.38,0,0,0,32.7,7.12c0,.93,0,1.86,0,2.78,0,1.25.46,1.71,1.72,1.71Zm0,68.94H34.21A1.35,1.35,0,0,0,32.7,82q0,1.55,0,3.11a1.34,1.34,0,0,0,1.42,1.45H65.39a1.33,1.33,0,0,0,1.44-1.47c0-1,0-1.93,0-2.89,0-1.21-.46-1.66-1.69-1.66Zm22.77-3.12a31.24,31.24,0,0,0,6.89-.57,12,12,0,0,0,4.16-1.72,2.41,2.41,0,0,0,1.15-2.21c0-1.67,0-3.35,0-5A1.14,1.14,0,0,0,84,66.78a5,5,0,0,0-3.19-.45,23.91,23.91,0,0,0-12.09,6.25,3.74,3.74,0,0,0-.87,3.65,1.33,1.33,0,0,0,1.06,1.06,6,6,0,0,0,1.24.13C71,77.44,71.75,77.42,72.53,77.42ZM27,77.41c1,0,2,0,3,0a1.56,1.56,0,0,0,1.62-1.35,3.88,3.88,0,0,0-1.11-3.69,24.93,24.93,0,0,0-11.3-5.94,5.61,5.61,0,0,0-3.63.28A1.22,1.22,0,0,0,14.83,68c0,1.71,0,3.42,0,5.12a2,2,0,0,0,.91,1.87,15.72,15.72,0,0,0,2.54,1.34C21.1,77.39,24.07,77.39,27,77.41Z" transform="translate(-2.25 -2.09)"/>
</svg>
