<svg id="Layer_1" data-name="Layer 1" xmlns="http://www.w3.org/2000/svg" viewBox="0 0 60.47 91.53">
  <defs>
    <style>
      .cls-1 {
        fill: #f5814b;
      }
    </style>
  </defs>
  <title>busshelter</title>
  <g>
    <path class="cls-1" d="M47.82,4.24h4.12c.1.14.25.08.38.09a24.45,24.45,0,0,1,3.58.48C66.51,7.18,74,13.38,78.13,23.43a26.45,26.45,0,0,1,2,13.07A43,43,0,0,1,75,52.58c-1.9,3.49-3.93,6.92-5.89,10.37C64,71.93,59,81,53.76,89.86c-1.17,2-2.36,4-3.68,5.89a.08.08,0,0,1-.09,0c-.37-.53-.75-1-1.09-1.58-2.53-3.94-4.86-8-7.2-12-5.16-8.91-10.19-17.9-15.29-26.85a56.38,56.38,0,0,1-5.48-13.21,29,29,0,0,1-.48-14.28A30.27,30.27,0,0,1,45.94,4.49,9.73,9.73,0,0,0,47.82,4.24Zm1.64,53.6A23.28,23.28,0,1,0,26.19,34.58,23.29,23.29,0,0,0,49.45,57.83Z" transform="translate(-19.77 -4.24)"/>
    <path class="cls-1" d="M35.91,32.59q0-4.8,0-9.61a4.18,4.18,0,0,1,4.37-4.38H58.71A4.18,4.18,0,0,1,63.15,23q0,9.56,0,19.12a4.18,4.18,0,0,1-3.06,4.27.34.34,0,0,0-.28.38q0,.94,0,1.88a2,2,0,0,1-4,0c0-.56,0-1.13,0-1.69,0-.36-.09-.46-.46-.46-2.59,0-5.18,0-7.78,0-1,0-2,0-3,0-.3,0-.4.08-.39.38,0,.56,0,1.13,0,1.69a2,2,0,0,1-2,2,2,2,0,0,1-2-2.05c0-.56,0-1.13,0-1.69,0-.23,0-.35-.31-.38a4.14,4.14,0,0,1-4-4.43q0-4.76,0-9.52Zm13.74,4.17h7.09a3.24,3.24,0,0,0,3.43-3.44q0-4.09,0-8.19a3.29,3.29,0,0,0-3.58-3.58H42.46a3.26,3.26,0,0,0-3.41,3.39q0,4.23,0,8.46a3.23,3.23,0,0,0,3.37,3.36Zm-7.19,3.16c-.75,0-1.49,0-2.24,0a1.84,1.84,0,0,0-1.85,1.78,1.79,1.79,0,0,0,1.72,1.93c1.55.05,3.11.05,4.66,0a1.82,1.82,0,0,0,1.75-1.92,1.87,1.87,0,0,0-1.9-1.79Zm14.46,0H54.68a1.86,1.86,0,0,0-1.88,1.75,1.8,1.8,0,0,0,1.66,1.95,39,39,0,0,0,4.8,0,1.78,1.78,0,0,0,1.67-2A1.84,1.84,0,0,0,59,39.93Z" transform="translate(-19.77 -4.24)"/>
  </g>
</svg>
