<svg id="Layer_1" data-name="Layer 1" xmlns="http://www.w3.org/2000/svg" viewBox="0 0 95.57 74.55">
  <defs>
    <style>
      .cls-1 {
        fill: #f5814b;
      }
    </style>
  </defs>
  <title>cctv</title>
  <g>
    <path class="cls-1" d="M36.27,32.46c-2.06,0-4.13,0-6.19,0s-4.27-.08-6.41-.13-4.45-.1-6.67-.13a5.28,5.28,0,0,0-1.26.15,1.26,1.26,0,0,0-1,1.38c.11,1.84.23,3.67.39,5.51s.36,4,.58,5.94c.34,3,.67,6.06,1.07,9.08a4.24,4.24,0,0,0,3.62,3.45,22.47,22.47,0,0,0,2.72.23c3.87.14,7.75.25,11.62.37l6.27.21,7.55.28a3.31,3.31,0,0,0,3.72-2.73,8.64,8.64,0,0,0,.21-1.66c0-1,0-1.92,0-2.87,0-.16,0-.31,0-.47l.11,0c.14.34.29.68.42,1,.2.51.38,1,.59,1.52a1.79,1.79,0,0,0,.32.47c.45.51.62.54,1.1.08,1.19-1.12,2.35-2.28,3.55-3.39,2-1.85,4-3.66,6-5.51q6-5.65,12-11.32c.66-.62,1.38-1.19,2-1.83a1.43,1.43,0,0,0,.39-.84c.12-1.56.2-3.12.27-4.68a2.07,2.07,0,0,1,.54-1.41q1.88-2,3.78-3.9l.31-.26c.23.81.47,1.54.63,2.29a16.32,16.32,0,0,1,.43,4.12,2.41,2.41,0,0,1-.75,1.78c-1.23,1.16-2.47,2.32-3.7,3.48q-3.19,3-6.36,6.07c-1.39,1.34-2.75,2.7-4.15,4Q63.5,48.91,57,55a3.39,3.39,0,0,0-1,1.88c-.33,1.55-.72,3.09-1.08,4.64,0,.14,0,.29-.06.48L84,59.36c.2-1.22.37-2.43.59-3.62a13.9,13.9,0,0,1,1.26-3.93A3,3,0,0,1,88.68,50c1.25,0,2.5.1,3.74.22s2.39.32,3.58.49a2.65,2.65,0,0,1,.5.18c-.44.32-.86.59-1.24.9a6.45,6.45,0,0,0-2,3.78,34.88,34.88,0,0,0-.88,6.73c-.1,2.75-.17,5.51-.12,8.26a34.62,34.62,0,0,0,1.1,8.87,24.73,24.73,0,0,0,1,2.46c.1.24.22.47.37.8-.91-.28-1.72-.54-2.53-.77l-3.65-1-.5-.16a2.42,2.42,0,0,1-1.77-1.83,57.91,57.91,0,0,1-1.65-8.07,1.27,1.27,0,0,0,0-.15l-2.72.15-8.87.53L61.86,72l-6.71.38c-.4,0-.63.1-.76.56A3,3,0,0,1,52,75.12a11.8,11.8,0,0,1-4.91.07,3.52,3.52,0,0,1-2.61-2.35A11.77,11.77,0,0,1,43.59,68c0-1.29.05-2.59,0-3.88,0-.83-.22-1.65-.32-2.48s-.17-1.59-.26-2.47c-.72,0-1.56,0-2.39,0-3.46-.13-6.92-.28-10.38-.4-2.62-.09-5.24-.13-7.87-.22A8.86,8.86,0,0,1,19.16,58a5.23,5.23,0,0,1-3.23-4.36c-.18-1.21-.26-2.43-.39-3.75l-4.1,2.89c-.35-.66-.68-1.22-1-1.79C8.39,46.66,6.4,42.27,4.73,37.74a30.92,30.92,0,0,1-1-3.16C3.47,33.4,3.82,32.75,5,32.5a23.54,23.54,0,0,1,4.1-.6c3.61-.13,7.22-.23,10.83-.16,4.61.09,9.22.35,13.82.54l2.52.11Z" transform="translate(-3.67 -8.75)"/>
    <path class="cls-1" d="M14.08,27.42c1.07-.52,2.12-1.06,3.21-1.54C25.85,22.13,34.4,18.36,43,14.66c3.44-1.49,6.94-2.85,10.43-4.21a23.4,23.4,0,0,1,6.37-1.32,168.15,168.15,0,0,1,17.14-.31,44.43,44.43,0,0,1,4.89.34,4.53,4.53,0,0,1,2.76,1.45c.49.52.49.68-.1,1.06-1.31.85-2.64,1.66-4,2.49q-7.16,4.46-14.33,8.91c-4.11,2.54-8.23,5-12.35,7.57l-.5.29c-.13-.24-.26-.47-.37-.7s-.19-.43-.27-.65a2.22,2.22,0,0,0-2.55-1.78c-2,0-4-.08-6-.09l-21.27-.1-8.44-.07h-.34Z" transform="translate(-3.67 -8.75)"/>
    <path class="cls-1" d="M85.15,12.3c.53,1.57,1,3.09,1.55,4.63a.52.52,0,0,1-.16.4c-1.48,1.54-3,3.07-4.45,4.61C81,23,80,24.1,79,25.2a1,1,0,0,0-.24.59q-.16,2.51-.27,5a1.36,1.36,0,0,1-.46,1c-3.61,3.36-7.21,6.74-10.82,10.1-2.34,2.18-4.71,4.33-7.06,6.49l-5.57,5.17-.22.19c-.38-.9-.75-1.76-1.1-2.62q-2.19-5.45-4.36-10.9c-.53-1.33-1-2.67-1.52-4-.15-.39-.12-.58.28-.82Q54.49,31.27,61.3,27L83.79,13.1C84.22,12.83,84.67,12.58,85.15,12.3Z" transform="translate(-3.67 -8.75)"/>
    <path class="cls-1" d="M31.66,36.11h9.28a2,2,0,0,1,2,1.48,30.66,30.66,0,0,1,.79,3.56c.45,3,.84,6,1.23,9a24.24,24.24,0,0,1,.19,2.77c0,1.39-.59,2-2,2-1.18,0-2.36-.06-3.53-.09-2.37-.07-4.74-.12-7.11-.2-2.65-.09-5.3-.21-7.95-.33-.44,0-.87-.12-1.31-.17a.77.77,0,0,1-.74-.64c-.23-1.08-.5-2.15-.69-3.23-.23-1.38-.4-2.77-.57-4.15-.31-2.5-.61-5-.89-7.49-.2-1.76.46-2.5,2.25-2.52,2.7,0,5.39,0,8.09,0h.93Zm6.2,9.33a5.09,5.09,0,1,0-10.18-.13,5,5,0,0,0,4.92,5.22A5,5,0,0,0,37.87,45.44Z" transform="translate(-3.67 -8.75)"/>
    <path class="cls-1" d="M99,60.71c.06,2.85.12,5.16.15,7.47q.07,6.27.11,12.54a5.07,5.07,0,0,1-.12,1.1,1.63,1.63,0,0,1-2.19,1.42,3.12,3.12,0,0,1-2.34-1.94,15.7,15.7,0,0,1-1.25-4.57,64.35,64.35,0,0,1-.59-10.13,54,54,0,0,1,.77-9.54,10.86,10.86,0,0,1,1.07-3.48,4.8,4.8,0,0,1,1.68-1.84,1.39,1.39,0,0,1,2.17.63A6.15,6.15,0,0,1,99,55.15C99,57.19,99,59.22,99,60.71Z" transform="translate(-3.67 -8.75)"/>
    <path class="cls-1" d="M4.83,31.68c.36-.2.7-.42,1.07-.59l5.77-2.66a6.25,6.25,0,0,1,2.66-.55l14.06,0c4.74,0,9.49,0,14.23.07,2.62,0,5.24.11,7.87.15a1.76,1.76,0,0,1,1.76,1.15c.21.52.43,1,.6,1.56a.52.52,0,0,1-.16.46c-1.94,1.22-3.9,2.41-5.88,3.63a3.68,3.68,0,0,1-.29-.34,5.33,5.33,0,0,0-4.33-2.45c-3.86-.27-7.73-.54-11.6-.72-4.18-.19-8.36-.31-12.55-.38a84.45,84.45,0,0,0-11.51.54l-1.66.18Z" transform="translate(-3.67 -8.75)"/>
    <path class="cls-1" d="M32.56,50a4.54,4.54,0,0,1-4.4-4.78,4.46,4.46,0,0,1,4.7-4.55,4.65,4.65,0,0,1,4.59,4.64A4.73,4.73,0,0,1,32.56,50Zm-.63-5.85a1.6,1.6,0,0,0-3.19,0,1.56,1.56,0,0,0,1.55,1.63A1.64,1.64,0,0,0,31.93,44.18Z" transform="translate(-3.67 -8.75)"/>
  </g>
</svg>
