<svg id="Layer_1" data-name="Layer 1" xmlns="http://www.w3.org/2000/svg" viewBox="0 0 105.4 100.41">
  <defs>
    <style>
      .cls-1 {
        fill: #f5814b;
      }
    </style>
  </defs>
  <title>eco</title>
  <g>
    <path class="cls-1" d="M15.93,85.59a2.06,2.06,0,0,0-.37-.05A10.67,10.67,0,0,1,9.69,83.8l-.88-.51c-.6-.33-.65-.57-.22-1.1.16-.2.34-.39.61-.69a5,5,0,0,0-.76,0,4,4,0,0,1-3.23-1.22c-.9-.8-1.7-1.71-2.58-2.54a.64.64,0,0,1,0-1.08,5.38,5.38,0,0,0,.43-.53c-.25-.12-.44-.23-.64-.32A4.83,4.83,0,0,1,.1,73.34c-.07-.12.08-.44.22-.58.49-.52.48-.47,0-.91a12,12,0,0,1-2.83-3.06c-.21-.35-.26-.63.23-.76.89-.23,1.77-.48,2.67-.69a11,11,0,0,1,4-.38c1.28.17,2.54.5,3.81.75.19,0,.38.05.57.08l.08-.13a2.79,2.79,0,0,0-.33-.46c-2-1.86-4-3.7-5.92-5.57a4.43,4.43,0,0,1-.73-1.19c-.17-.33-.07-.55.34-.56a4.87,4.87,0,0,0,.57,0,5.78,5.78,0,0,0,.58-.13,2.81,2.81,0,0,0-.22-.6c-.39-.6-.83-1.16-1.2-1.77a6.57,6.57,0,0,1-.4-1c-.2-.49,0-.61.48-.6H3.25A8,8,0,0,0,2.82,55a2.93,2.93,0,0,1-.43-1.72,12.17,12.17,0,0,0-.26-1.74c1-.3,2-.65,3-.9.34-.08.73.11,1.11.14s.61-.17.47-.65c-.25-.9-.45-1.82-.62-2.74a12.72,12.72,0,0,1-.2-1.79A.67.67,0,0,1,6.13,45a.76.76,0,0,0,.39-.74c.06-1,.13-1.91.25-2.87a.68.68,0,0,1,.71-.71,1.73,1.73,0,0,0,1.43-2.1A10.39,10.39,0,0,1,9.11,36,1.11,1.11,0,0,1,10,35c.26-.07.51-.54.59-.87.26-1.09.46-2.2.66-3.31s.33-2.08.48-3.13c.09-.63.16-1.25.24-1.88l.19,0a1.79,1.79,0,0,1,.27.39c.45,1.3.86,2.61,1.35,3.89.27.72.66,1.38,1,2.08.14.29.25.6.37.9L16,32.4a5.91,5.91,0,0,1,1.86,3.28c0,.36,0,.74.06,1.1,0,.13.24.25.4.32s.19-.1.28-.17c1.18-1,1.68-.31,2,.78a5.38,5.38,0,0,1,.18.65c.05.34.29.43.53.62a2.68,2.68,0,0,1,.87,1.31c.24.9.31,1.85.46,2.78a1.6,1.6,0,0,0,.18.38c.13-.06.31-.09.37-.19a8.62,8.62,0,0,1,2.34-2l1.16-.91.64,1.49c.29.67.62,1.32.85,2A3.46,3.46,0,0,1,28.23,45c0,.3,0,.47.37.34s.51.11.64.37a11.57,11.57,0,0,1,1.38,4.44c0,1,.17,2,.24,3s.13,2.22.2,3.33c0,.12.13.24.19.36.1-.09.25-.16.31-.28a9.86,9.86,0,0,1,2.75-3.4,13,13,0,0,1,4.94-2.55c.23,1.12,1,2.16.52,3.42a.33.33,0,0,0,.06.3.44.44,0,0,0,.37,0,4.6,4.6,0,0,0,.61-.47,5.84,5.84,0,0,1,.26,5.17c.41-.08.75-.13,1.08-.23.63-.19,1,0,1.17.58a8.07,8.07,0,0,1,.47,3.39c-.09,1-.25,2.07-.39,3.17-.09-.06-.06,0,0,0,.93-.06,1.26.19,1.31,1.3a19.19,19.19,0,0,1,0,4.08,24.91,24.91,0,0,1-1.37,4.86,31.24,31.24,0,0,1-4.47,7.74c-.31.4-.61,1-1,1.07s-.78-.45-1.16-.74a55.15,55.15,0,0,1-8.42-8,53.74,53.74,0,0,1-5.85-8.19c-.51-.88-1-1.76-1.56-2.62-.1-.16-.33-.24-.5-.35,0,.21-.13.49,0,.64C21.62,68,23,70.19,24.39,72.37c1.06,1.64,2.11,3.29,3.31,4.82A39.59,39.59,0,0,0,31.23,81a58.35,58.35,0,0,0,10.64,8.46c2.6,1.56,5.22,3.07,7.86,4.57a11.3,11.3,0,0,0,2,.77c.43.15,1-.22,1.22-.69.12-.23.06-.67.52-.6a1,1,0,0,1,.86,1c.05,1.32-1.44,2-2.73,1.61a35.24,35.24,0,0,1-7.22-3.64c-2.36-1.41-4.64-3-6.95-4.48a6.15,6.15,0,0,1-1.33-1c-.73-.84-1.6-.64-2.47-.46a43.23,43.23,0,0,1-5,1c-2.63.21-5.28.2-7.93.17a38.71,38.71,0,0,1-4.21-.42A5.82,5.82,0,0,1,15.07,87c-.47-.18-.47-.43,0-.7s.64-.36,1-.53Z" transform="translate(2.7 0.2)"/>
    <path class="cls-1" d="M43.07,0l3.65.22c.15,0,.3,0,.45,0,2,0,4.06,0,6.08,0s4.19.13,6.29.21c1.74.07,3.47.1,5.2.25s3.17.35,4.75.62a14.12,14.12,0,0,1,2.82.79,6,6,0,0,1,2.84,2.57c1.55,2.53,3.13,5.05,4.69,7.58.52.85,1,1.71,1.54,2.57s.6.76,1.33.3c2-1.28,4.1-2.53,6.15-3.79l.74-.47.16.11c-.12.24-.22.5-.36.73q-2.23,3.69-4.47,7.38c-1.16,1.89-2.34,3.77-3.5,5.67-1.5,2.46-3,4.93-4.49,7.37a.93.93,0,0,1-.7.32c-.9,0-1.8-.14-2.71-.16-1.68,0-3.35,0-5-.06-2.91-.07-5.82-.15-8.73-.24l-7.19-.23c-.07,0-.14,0-.39-.07l1.61-1C55.86,29.49,57.93,28.21,60,27a.64.64,0,0,0,.28-1c-.57-1.25-1.13-2.51-1.73-3.75-1.19-2.46-2.35-4.93-3.62-7.35A64.81,64.81,0,0,0,49.81,6.4a22.16,22.16,0,0,0-5-4.86C44.2,1.11,43.62.64,43,.18Z" transform="translate(2.7 0.2)"/>
    <path class="cls-1" d="M65,100.2c-.43-.8-.86-1.6-1.3-2.4l-5-9.09-4.95-9a7.49,7.49,0,0,0-.61-1c-.47-.61-.26-1.12.09-1.69Q57.1,70.72,61,64.41c1.51-2.45,3-4.9,4.66-7.35,0,.8,0,1.6,0,2.4,0,1.14,0,2.27,0,3.41s.1,2.29.21,3.44a.83.83,0,0,0,.55.56c1.14.14,2.29.21,3.44.28,2.43.16,4.85.37,7.28.46,2.85.11,5.71.17,8.56.15a20.81,20.81,0,0,0,4.2-.45,41.32,41.32,0,0,0,4.62-1.41c1-.35,2-.82,3.14-1.3l-1.23,2.05c-1.09,1.8-2.17,3.61-3.28,5.41q-2.19,3.56-4.4,7.1c-1.18,1.9-2.34,3.82-3.59,5.67a14.26,14.26,0,0,1-4.46,4.64,6.26,6.26,0,0,1-2.85.81c-.74,0-1.48,0-2.22,0-2.85.08-5.7.16-8.55.26-.66,0-1.31.12-2,.18-.36,0-.42.28-.39.57.05.58.16,1.15.17,1.73,0,1.67,0,3.33.07,5,0,.54.11,1.08.16,1.62,0,.16,0,.32,0,.48Z" transform="translate(2.7 0.2)"/>
    <path class="cls-1" d="M50.41,10.84c-.26.45-.5.91-.77,1.35q-2.49,4.12-5,8.23c-2.07,3.38-4.15,6.75-6.22,10.14C37.67,31.77,37,33,36.23,34.25c-.25.43-.46.52-1,.2-3.16-2-6.36-3.87-9.53-5.81-2.85-1.74-5.69-3.5-8.54-5.26-.33-.21-.66-.42-1-.62s-.31-.34-.14-.63q3.31-5.39,6.61-10.79C24,9.2,25.24,7,26.63,4.91A11.56,11.56,0,0,1,30,1.7,10.52,10.52,0,0,1,36.68-.18a10.23,10.23,0,0,1,4.74,1.66A27,27,0,0,1,47.3,6.24a18,18,0,0,1,3,4.27C50.33,10.61,50.36,10.71,50.41,10.84Z" transform="translate(2.7 0.2)"/>
    <path class="cls-1" d="M91.49,30c.48.83.94,1.58,1.36,2.34Q95,36.2,97.13,40l4.27,7.69a8.69,8.69,0,0,1,1.1,3.51,20.58,20.58,0,0,1,.17,3.44A9.1,9.1,0,0,1,99,61.49a22.85,22.85,0,0,1-7,3.4,17.27,17.27,0,0,1-4.62.91c-.69,0-1.39.1-2.08.15a1,1,0,0,1-1-.57c-.9-1.63-1.8-3.26-2.7-4.89-1.25-2.29-2.48-4.6-3.73-6.89-1.44-2.63-2.89-5.25-4.33-7.87-.69-1.25-1.33-2.53-2-3.77-.28-.5-.13-.74.32-1q4.81-2.62,9.6-5.28C84.73,33.84,88.05,32,91.49,30Z" transform="translate(2.7 0.2)"/>
  </g>
</svg>
