<svg id="Layer_1" data-name="Layer 1" xmlns="http://www.w3.org/2000/svg" viewBox="0 0 89.94 83.73">
  <defs>
    <style>
      .cls-1 {
        fill: #c8ede6;
      }

      .cls-2 {
        fill: #fae115;
      }

      .cls-3 {
        fill: #4e4e4e;
      }

      .cls-4 {
        fill: #fefefe;
      }
    </style>
  </defs>
  <title>epay</title>
  <path class="cls-1" d="M49.88,79.16c-8.33,0-16.66.06-25,0A34.16,34.16,0,0,1,17,78.32,16.13,16.13,0,0,1,5.1,64.41c-.6-7.42,3-13.77,9.81-16.64,2.29-1,3.47-2.08,3.9-4.7,1-6.26,6.61-10.43,13.27-10.07a5.06,5.06,0,0,0,5.17-2.62,21.41,21.41,0,0,1,24.09-8.65A20.79,20.79,0,0,1,76.63,41.82c0,3.42,1.36,4.26,4.33,4.75,8,1.33,13.63,7.56,14,15A16.08,16.08,0,0,1,83,78.3a33.09,33.09,0,0,1-7.85.82C66.75,79.22,58.31,79.16,49.88,79.16Z" transform="translate(-5.03 -8.13)"/>
  <g>
    <path class="cls-2" d="M35.16,80.71a8,8,0,0,1-1.95.07H20.47a2.92,2.92,0,0,1-2.21-.85,2.67,2.67,0,0,1-.81-1.82c0-.37,0-.75,0-1.12q0-27.15,0-54.31a6.81,6.81,0,0,1,.07-1.28,2.74,2.74,0,0,1,2.65-2.18h7.94c8,0,16,0,24,0A2.92,2.92,0,0,1,55,20.92a2.7,2.7,0,0,1,.24,1.28c0,.61,0,1.23,0,1.84q0,8,0,16c0,.92,0,1.84,0,2.76h-.88q-8.85,0-17.71,0a6.33,6.33,0,0,0-6.45,6.27c0,1,0,2.06,0,3.08,0,7.43,0,14.85,0,22.28a6.11,6.11,0,0,0,3.4,5.62A14.31,14.31,0,0,0,35.16,80.71Zm1-45.52a8.13,8.13,0,0,1,0-.84c0-.33-.08-.41-.4-.4a14.63,14.63,0,0,0-7.67,2.35A14.88,14.88,0,0,0,23,41.88a14.55,14.55,0,0,0-1.74,6.6c0,.32.09.42.4.4s.91,0,1.36,0c.62,0,.6,0,.65-.63a12.34,12.34,0,0,1,7.41-10.83,10.93,10.93,0,0,1,4.77-1.07c.28,0,.38-.08.35-.36S36.21,35.45,36.21,35.18ZM26.88,48.89h0a6.2,6.2,0,0,1,.8,0c.35,0,.43-.11.44-.43A7.47,7.47,0,0,1,30,43.58a7.88,7.88,0,0,1,5.81-2.82c.28,0,.37-.1.36-.37a16,16,0,0,1,0-1.6c0-.37-.11-.45-.45-.43A10.59,10.59,0,0,0,25.68,48.46c0,.37.1.48.44.44A7.6,7.6,0,0,1,26.88,48.89Z" transform="translate(-5.03 -8.13)"/>
    <path class="cls-3" d="M12.41,50q0-17.17,0-34.35A7.56,7.56,0,0,1,20,8.13q16.27,0,32.55,0a7.53,7.53,0,0,1,7.73,7.69q0,11.62,0,23.25c0,.35,0,.69,0,1s-.05.34-.31.34c-.61,0-1.23,0-1.84,0-.2,0-.26-.08-.24-.26a2.29,2.29,0,0,0,0-.24c0-8,0-16.06,0-24.09a5.29,5.29,0,0,0-5.34-5.35c-10.84,0-21.67,0-32.51,0a5.13,5.13,0,0,0-5.21,5.2q0,34.31,0,68.62a5.18,5.18,0,0,0,5.28,5.15H52.43a5.22,5.22,0,0,0,5.22-3.76,5.9,5.9,0,0,0,.2-2c0-.33.1-.4.4-.39.56,0,1.12,0,1.68,0,.22,0,.3.06.31.29a7.58,7.58,0,0,1-7.74,8.2H20.08a7.54,7.54,0,0,1-7.67-7.71q0-17.07,0-34.15Z" transform="translate(-5.03 -8.13)"/>
    <path class="cls-3" d="M35.16,80.71a14.31,14.31,0,0,1-1.56-.6,6.11,6.11,0,0,1-3.4-5.62c0-7.43,0-14.85,0-22.28,0-1,0-2.06,0-3.08a6.33,6.33,0,0,1,6.45-6.27q8.85,0,17.71,0H81.27a6.25,6.25,0,0,1,6.32,6.29q0,12.72,0,25.45a6.22,6.22,0,0,1-6.14,6.18q-13.62,0-27.25,0H36.72A10.25,10.25,0,0,1,35.16,80.71ZM58.91,45.24H36.1A3.89,3.89,0,0,0,32.58,49q0,.94,0,1.88,0,11.8,0,23.61a3.93,3.93,0,0,0,.15,1.11,4,4,0,0,0,4,2.81q20.18,0,40.36,0c1.36,0,2.72,0,4.09,0a3.87,3.87,0,0,0,4-4.07q0-12.58,0-25.17a3.91,3.91,0,0,0-.06-.76,3.86,3.86,0,0,0-4-3.17Z" transform="translate(-5.03 -8.13)"/>
    <path class="cls-3" d="M36.37,13.41c2,0,4,0,5.93,0,.43,0,.51.13.49.51a13.06,13.06,0,0,0,0,1.48c0,.31-.06.4-.39.4-3.31,0-6.62,0-9.93,0-.75,0-1.5,0-2.24,0-.29,0-.36-.08-.35-.36,0-.53,0-1.07,0-1.6,0-.32.07-.43.41-.42C32.31,13.42,34.34,13.41,36.37,13.41Z" transform="translate(-5.03 -8.13)"/>
    <path class="cls-3" d="M36.21,35.18c0,.27,0,.54,0,.8s-.07.36-.35.36a10.93,10.93,0,0,0-4.77,1.07,12.34,12.34,0,0,0-7.41,10.83c0,.63,0,.63-.65.63-.45,0-.91,0-1.36,0s-.41-.08-.4-.4A14.55,14.55,0,0,1,23,41.88a14.88,14.88,0,0,1,5.13-5.58,14.63,14.63,0,0,1,7.67-2.35c.32,0,.43.07.4.4A8,8,0,0,0,36.21,35.18Z" transform="translate(-5.03 -8.13)"/>
    <path class="cls-3" d="M26.88,48.89a7.6,7.6,0,0,0-.76,0c-.35,0-.47-.08-.44-.44A10.59,10.59,0,0,1,35.76,38.36c.34,0,.48.05.45.43a16,16,0,0,0,0,1.6c0,.28-.08.36-.36.37A7.88,7.88,0,0,0,30,43.58a7.47,7.47,0,0,0-1.93,4.88c0,.32-.08.47-.44.43a6.2,6.2,0,0,0-.8,0Z" transform="translate(-5.03 -8.13)"/>
    <path class="cls-4" d="M58.91,45.24H81.19a3.86,3.86,0,0,1,4,3.17,3.91,3.91,0,0,1,.06.76q0,12.58,0,25.17a3.87,3.87,0,0,1-4,4.07c-1.36,0-2.72,0-4.09,0q-20.18,0-40.36,0a4,4,0,0,1-4-2.81,3.93,3.93,0,0,1-.15-1.11q0-11.8,0-23.61,0-.94,0-1.88a3.89,3.89,0,0,1,3.52-3.77h22.8ZM44.38,60.18h6.69c.51,0,.59-.07.59-.57q0-4.77,0-9.53c0-.53-.07-.59-.61-.59-2.21,0-4.42,0-6.63,0s-4.53,0-6.8,0c-.36,0-.54.1-.54.5,0,3.22,0,6.43,0,9.65,0,.48.07.55.56.55ZM59.1,67H37.46c-.29,0-.4.06-.38.37a13.14,13.14,0,0,1,0,1.6c0,.38.12.43.45.43H80.63c.29,0,.4-.06.39-.37a15.25,15.25,0,0,1,0-1.56c0-.35-.06-.47-.45-.47Q69.83,67,59.1,67ZM46.47,72.81h-9c-.3,0-.39.07-.38.37a14.43,14.43,0,0,1,0,1.6c0,.35.11.41.43.41H47.6c2.63,0,5.26,0,7.89,0,.3,0,.39-.08.37-.38a16.33,16.33,0,0,1,0-1.64c0-.32-.1-.36-.38-.36ZM64,75.19h0c1.36,0,2.72,0,4.08,0,.26,0,.34-.07.33-.33,0-.59,0-1.17,0-1.76,0-.19,0-.28-.26-.28H59.9c-.25,0-.28.11-.28.31,0,.57,0,1.15,0,1.72,0,.29.1.35.36.35C61.33,75.18,62.68,75.19,64,75.19Z" transform="translate(-5.03 -8.13)"/>
    <path class="cls-3" d="M44.38,60.18H37.66c-.49,0-.56-.06-.56-.55,0-3.22,0-6.43,0-9.65,0-.4.18-.5.54-.5q3.4,0,6.8,0c2.21,0,4.42,0,6.63,0,.54,0,.61.06.61.59q0,4.77,0,9.53c0,.5-.08.57-.59.57H44.38Z" transform="translate(-5.03 -8.13)"/>
    <path class="cls-3" d="M59.1,67q10.74,0,21.48,0c.39,0,.47.12.45.47A15.25,15.25,0,0,0,81,69c0,.31-.09.37-.39.37H37.52c-.33,0-.47-.05-.45-.43a13.14,13.14,0,0,0,0-1.6c0-.31.09-.37.38-.37H59.1Z" transform="translate(-5.03 -8.13)"/>
    <path class="cls-3" d="M46.47,72.82h9c.28,0,.4,0,.38.36a16.33,16.33,0,0,0,0,1.64c0,.3-.07.38-.37.38-2.63,0-5.26,0-7.89,0H37.5c-.32,0-.45-.06-.43-.41a14.43,14.43,0,0,0,0-1.6c0-.3.08-.38.38-.37Z" transform="translate(-5.03 -8.13)"/>
    <path class="cls-3" d="M64,75.19c-1.35,0-2.69,0-4,0-.27,0-.38-.06-.36-.35,0-.57,0-1.15,0-1.72,0-.21,0-.31.28-.31h8.28c.23,0,.26.09.26.28,0,.59,0,1.17,0,1.76,0,.26-.07.34-.33.33-1.36,0-2.72,0-4.08,0Z" transform="translate(-5.03 -8.13)"/>
  </g>
</svg>
