<svg id="Layer_1" data-name="Layer 1" xmlns="http://www.w3.org/2000/svg" viewBox="0 0 946.98 606.94">
  <title>frame</title>
  <g>
    <path d="M0,518.1v28.8c1.21,4.08,1.45,10.2,1.46,19.38,0,7.72-.31,13.15-1.46,17v23.67H947V518.1Zm67.26,60.64c-2.51,4.89-6.53,10.44-11.27,12.35-5.32,2.15-12.57,2-18.25.34-21.41-6.24-10.2-24.36-12.16-37.36-1.45-9.56,4.87-14.65,14.76-15.24,24.2-1.43,27.34,1.59,27.25,27.3C67.59,570.39,69,575.36,67.26,578.73Zm35.12,12.15c-4-.62-8.12-7.21-10.13-11.92-1.68-3.93-.34-9.14-.34-13.79,0-4.26-.27-8.54.08-12.77a17.59,17.59,0,0,1,2.18-7.62c3.56-5.75,20.76-8.67,30.46-5.24,7.8,2.77,9.93,9,9.56,16.7a80.62,80.62,0,0,0,0,11.61C136.48,591.46,126.48,594.61,102.38,590.88Zm97.42-12.15c-2.13,4.72-5.8,10.77-10.05,12-6.7,2-14.62,1.42-21.71.17-9-1.58-11.23-9.15-10-17,1.8-11.7-7.12-27.3,9.31-33.81,7-2.76,16.29-1.71,23.91.18,3.72.92,7,7.38,8.6,12,1.44,4.15.3,9.19.3,13.83C200.12,570.36,201.4,575.19,199.81,578.73ZM265,571.61c-2,6.25-3,16.3-6.93,17.73-7.7,2.79-17.16.74-25.88.65-.31,0-.62-.44-.94-.66-8.05-5.88-8.94-43.48,0-47.26a41,41,0,0,1,25.6-1.39c4,1.18,5.83,10.94,8.06,17,.87,2.4.14,5.38.14,8.1C265.08,567.75,265.56,569.85,265,571.61Zm66.14.47c-.07,16.5-3.51,20-19.47,20S292.1,588.43,292,572c0-4.26,0-8.53,0-12.79.12-17.35,3.16-20.39,20.28-20.34,17.36.06,18.88,2.25,18.88,27.38C331.13,568.2,331.14,570.14,331.13,572.08Zm39.19,19.68c-7.48-1.39-11.74-5.59-11.84-13.43-.05-4.27,0-8.54,0-12.8q-.05-3.49,0-7c.07-16.67,3.1-19.69,19.69-19.66,16.06,0,19.57,3.57,19.68,19.9,0,3.49,0,7,0,10.48C397.81,589.6,390.56,595.52,370.32,591.76Zm92.34-9c-2.56,12.07-14.48,9.1-23.51,9.15-8.06,0-13.4-4-14.38-12.22-.59-5-.11-10.07-.11-15.11h-.18c0-1.94-.5-4.05.09-5.79,2.12-6.21,3.25-16.2,7.26-17.6,7.71-2.69,17.18-.95,25.8,0,2.09.23,5.23,4.42,5.35,6.9C463.52,559.68,465,571.69,462.66,582.8Zm35.65,7.53c-11.76-6.2-6.55-17.87-7.05-27.32-.43-8.11-2.92-17.71,7-22.75,16.64-8.44,31.67.48,31.79,18.68,0,2.32,0,4.65,0,7q0,2.91,0,5.81C530,589.92,514.83,599,498.31,590.33Zm99.2-10.61c-1.52,4.22-5.11,9.93-8.7,10.69-7.7,1.63-16.72,2.58-23.89.07-15.19-5.32-8.12-19.62-9.34-30.34-.93-8.22-.85-17.71,9.15-20.11a53,53,0,0,1,24,.16c3.79.92,7.2,7.29,8.86,11.89,1.48,4.11.31,9.18.31,13.83h-.11C597.83,570.55,599,575.61,597.51,579.72ZM664,578.25c-2.43,5-6.3,11.06-10.94,12.67-6.17,2.14-14,1.73-20.46-.11-4.13-1.19-9.24-6.57-9.89-10.71-1.49-9.44-.79-19.28-.36-28.94.12-2.79,2-7.6,3.67-7.88,9.92-1.68,20.29-4,29.93-2.44,3.59.57,6,10.72,8.27,16.73.91,2.36.15,5.36.15,8.07h0C664.3,569.9,665.66,574.82,664,578.25Zm66.44-6.41c0,16.59-3.74,20.21-20.59,20.27-17.8.06-21.65-3.56-21.71-20.46,0-2.32,0-4.65,0-7h.06c0-4.26-1.39-9.23.33-12.61,2.51-4.91,6.53-10.68,11.25-12.43a29.75,29.75,0,0,1,19.34.05c4.65,1.75,9.27,7.56,10.81,12.53C731.78,558.24,730.44,565.26,730.42,571.84Zm66.65-2.72c0,19.68-3.47,23.14-22.85,23-17.27-.17-19.76-3.57-19.71-27a110.35,110.35,0,0,1,.1-11.6c.32-3,.93-6.25,2.45-8.75,3.51-5.74,21.59-9.68,30.2-4.63,4.8,2.81,7.35,10.42,9.55,16.38C798.2,560.19,797.08,564.87,797.07,569.13Zm65.55,10.46c-1.82,4.45-5.66,10.05-9.71,11.15-6.81,1.85-14.62,1.41-21.75.31-8.27-1.28-11.52-8-10.21-15.65,2-12.06-7.49-28,8.94-35.18,6.79-3,16.26-1.85,23.9,0,3.8.91,7.28,7.2,9,11.78,1.5,4.1.32,9.18.32,13.82H863C863,570.43,864.25,575.6,862.62,579.58Zm63.41,7.2c-9.83,2-20,4.53-29.79,3.65-8.82-.8-9.65-9.68-9.43-17.46.14-5,0-10.06,0-15.1.14-14.85,3.9-18.73,18.33-19,22.62-.41,24.12,1.27,24,27,0,4.26.38,8.56-.13,12.75C928.68,581.52,927.56,586.48,926,586.79Z"/>
    <path d="M1.42,32.76c.05,3.09,0,6.19,0,9.28h0c0,4.25.27,8.53-.1,12.75A19.69,19.69,0,0,1,0,60.36V89.28H947V0H0V23.23A28.55,28.55,0,0,1,1.42,32.76Zm885.47-.54c.32-11.79,4.5-16.06,16-16.63,23.71-1.2,26.45,1.59,26.41,26.88a109.14,109.14,0,0,1-.1,11.59c-.32,3-.69,6.61-2.5,8.67-8.25,9.36-19.33,6-29.34,4.87-8.32-1-10.58-8-10.51-15.65C886.88,45.37,886.71,38.79,886.89,32.22Zm-65.78-2C819.49,21,825.86,16.14,835,15.62c3.86-.22,7.74-.21,11.6-.07,12.27.42,16.21,4.57,16.47,17.21.06,3.09,0,6.19,0,9.28h-.05c0,4.25,1.43,9.27-.33,12.59-2.72,5.13-6.84,10.92-11.82,13.05-5.21,2.24-12.61,2-18.23.22C811.6,61.24,823.39,43.22,821.11,30.25ZM754.56,41.7a114.29,114.29,0,0,1,.1-11.59c.31-3,.61-6.63,2.39-8.72,8.16-9.6,19.34-6,29.33-5,8.25.79,10.77,7.77,10.69,15.5,0,3.87-.24,7.75,0,11.6,1.88,25.36-7,27.1-32,24C761.27,67,756.9,61,755.2,56.62s-.37-9.9-.37-14.92Zm-66.3-11.57c.32-3,.93-6.22,2.46-8.69,3.62-5.84,20.44-8.49,30.41-5.12,8.07,2.72,9.61,9.1,9.33,16.67-.25,6.57-.2,13.15,0,19.72.28,10.74-5.24,15.57-15.54,15.75-3.09.06-6.19.14-9.28,0C692.42,68.13,688.36,64,688.15,51c-.05-3.09,0-6.19,0-9.28C688.16,37.85,687.85,34,688.26,30.13ZM622,50.92q.27-9.86,0-19.72c-.25-10.78,5.36-15.51,15.65-15.62,3.09,0,6.19-.1,9.28,0,13.23.36,17.16,4.32,17.39,17.49.05,3.09,0,6.19,0,9.28,0,3.87.3,7.77-.12,11.59a21,21,0,0,1-2.54,8.68c-3.7,5.91-20.33,8.44-30.43,5C623.08,64.89,621.78,58.39,622,50.92ZM556,28c2.52-4.8,7.11-9.76,12-11.73s11.44-.87,17.21-.48c7.62.51,12.09,5,12.65,12.59.42,5.78.22,11.6.21,17.4,0,20.11-2.92,23-22.73,22.78-17.67-.2-19.91-3.22-19.71-26.84C555.63,37.06,554.1,31.61,556,28Zm-64.94,13.3c0-1.55,0-3.1,0-4.65.06-19.18,12.69-27.74,30.67-19.87,3.68,1.61,6.91,7.19,7.84,11.48,1.35,6.3.51,13.09.48,19.67C530,66.37,513.6,76,497.71,66.56c-3.1-1.85-5.44-6.48-6.28-10.25-1.07-4.79-.26-10-.26-15Zm-66.17-5.75c-.05-6.12,2.43-15.13,6.86-17.93,17.49-11,32.09.58,32.09,24.46,0,1.94,0,3.88,0,5.81-.05,18.46-16.63,28.47-32.37,18.74C419.38,59.13,425,46.1,424.91,35.53Zm-66.47,2c-2-24,10.3-25.48,28.74-20.84,19,4.77,8.59,23.54,10.38,36.16,1.24,8.77-3.61,15.25-13.25,15.48-19.23.46-27.66,2.05-25.85-26.15C358.45,40.65,358.56,39.09,358.43,37.55Zm-66.2-4.11c-1.48-9.26,1.68-17.43,13.13-17.75,20.55-.58,27.26-1.5,25.76,26.07,0,1.16-.07,2.33,0,3.49,1.7,26.29-9.51,25.31-26.41,22.6C283.41,64.45,294.19,45.69,292.24,33.45ZM225.69,46.06c.14-1.54,0-3.1,0-4.65s0-3.1,0-4.65c.07-19.23,13.1-28.55,30.81-20,15.8,7.6,7.13,23.56,8,35.74.34,4.91-5.1,14.09-9,14.76C235.28,70.68,223.57,69.53,225.69,46.06ZM158,33.74c-1.13-7.33.49-15.2,8.63-16.82S184,14.77,191.74,17c12,3.49,7.74,15.09,8.5,23.21,0,2.23,0,3.77,0,5.32,0,20.78-14.52,30.59-33.74,21.54C151.42,60,159.76,45.15,158,33.74ZM92,29.27A18.52,18.52,0,0,1,94,21.6c3.52-5.93,19.88-8.76,30.38-5.39,8,2.56,10,8.83,9.74,16.47a87,87,0,0,0,0,11.6c2.36,24.82-8.33,26.54-32.74,23-3.66-.53-7.62-7-9.21-11.44s-.35-9.93-.35-15C91.9,37,91.65,33.11,92,29.27ZM25.21,50.78c.13-5.8,0-11.6,0-17.4.21-13.28,4.22-17.41,17.13-17.8,23.32-.7,25.3,1.41,25.26,26.89,0,3.87.31,7.77-.1,11.59-.32,3-.94,6.23-2.49,8.69C61.42,68.52,44.28,71,34.54,67.58,26.54,64.74,25,58.25,25.21,50.78Z"/>
  </g>
</svg>
