<svg id="Layer_1" data-name="Layer 1" xmlns="http://www.w3.org/2000/svg" viewBox="0 0 91.2 75.17">
  <defs>
    <style>
      .cls-1 {
        fill: #c8ede6;
      }

      .cls-2 {
        fill: #f6cca4;
      }

      .cls-2, .cls-3 {
        stroke: #3d3d3d;
        stroke-miterlimit: 10;
        stroke-width: 0.5px;
      }

      .cls-3 {
        fill: #bd977c;
      }

      .cls-4 {
        fill: #488caa;
      }

      .cls-5 {
        fill: #dd0b2f;
      }
    </style>
  </defs>
  <title>health</title>
  <path class="cls-1" d="M49.88,79.16c-8.33,0-16.66.06-25,0A34.16,34.16,0,0,1,17,78.32,16.13,16.13,0,0,1,5.1,64.41c-.6-7.42,3-13.77,9.81-16.64,2.29-1,3.47-2.08,3.9-4.7,1-6.26,6.61-10.43,13.27-10.07a5.06,5.06,0,0,0,5.17-2.62,21.41,21.41,0,0,1,24.09-8.65A20.79,20.79,0,0,1,76.63,41.82c0,3.42,1.36,4.26,4.33,4.75,8,1.33,13.63,7.56,14,15A16.08,16.08,0,0,1,83,78.3a33.09,33.09,0,0,1-7.85.82C66.75,79.22,58.31,79.16,49.88,79.16Z" transform="translate(-5.03 -20.02)"/>
  <g>
    <path class="cls-2" d="M68,87.51c-.64,0-1.12.08-1.61.08H29.87a5.09,5.09,0,0,1-5.42-5.4q0-28.32,0-56.65c0-3.26,2-5.26,5.29-5.27H67a4.84,4.84,0,0,1,5.14,5.06c0,9.4,0,18.79,0,28.19,0,2,0,4.07,0,6.11a1.08,1.08,0,0,1-.69,1.15c-1.15.55-2.26,1.18-3.53,1.86,0-.43,0-.73,0-1q0-17.15,0-34.3c0-1.08-.21-1.29-1.26-1.29H30.25c-1.44,0-1.52.11-1.52,1.55q0,12.43,0,24.87,0,12.26,0,24.52c0,1.21.2,1.39,1.44,1.39q12.22,0,24.44,0a2.06,2.06,0,0,1,1.24.44,58.9,58.9,0,0,0,11.92,8.44S67.86,87.3,68,87.51ZM48.29,80.66a2.13,2.13,0,0,0-2.2,2.2,2.28,2.28,0,1,0,4.56.11A2.38,2.38,0,0,0,48.29,80.66Z" transform="translate(-5.03 -20.02)"/>
    <path class="cls-3" d="M63.73,75.2c-.24-.37-.46-.76-.73-1.12L53.53,61.67A3.18,3.18,0,0,1,52.68,59c.45-2.13,2.24-3,4.12-1.79a7.57,7.57,0,0,1,1.49,1.33c1.91,2.07,3.79,4.18,5.7,6.26a2.77,2.77,0,0,0,3.89.63l6.32-3.53a2,2,0,0,0,.56-.4,3.8,3.8,0,0,1,5.78-.19,35.25,35.25,0,0,1,6.77,9.87c.58,1.14,1.22,2.25,1.86,3.36a12.25,12.25,0,0,0,2.7,2.76,22,22,0,0,1,3.79,4.69c.78,1.27.12,2.82-1.26,3.9-2.33,1.84-4.68,3.65-7,5.47l-3.65,2.84a3.53,3.53,0,0,1-5-.53,25.46,25.46,0,0,1-2.39-3.22A5.71,5.71,0,0,1,75.74,88a1.83,1.83,0,0,0-1.65-1.58,16.72,16.72,0,0,1-7.45-2.54c-1.72-1.08-3.3-2.37-4.93-3.59-1.21-.91-2.41-1.83-3.56-2.8A9.72,9.72,0,0,1,57,76.12a1.72,1.72,0,0,1-.23-2.24,2.1,2.1,0,0,1,2.5-1,35,35,0,0,1,3.49,1.92,8.87,8.87,0,0,1,.76.54ZM77.9,88.27l3.51,4.59,12.1-9.33L90,79Z" transform="translate(-5.03 -20.02)"/>
    <path class="cls-4" d="M55.77,68.26a6.07,6.07,0,0,1-4.46.93,11,11,0,0,1-5.53-2.79,14.71,14.71,0,0,1-5.43-10.2,1.63,1.63,0,0,0-1.24-1.68c-2.07-.67-3.89-3.74-3.75-5.92a2.83,2.83,0,0,0-.16-1c-.75-2.33-1.52-4.64-2.27-7a6.1,6.1,0,0,1,.73-6,5.94,5.94,0,0,1,4-2,1.05,1.05,0,0,1,1.31,1.21c-.05.71-.8,1.38-1.47,1.1a1.86,1.86,0,0,0-2.45.54,3.57,3.57,0,0,0-.87,3.24,16.84,16.84,0,0,0,.48,1.77c.81,2.31,1.62,4.61,2.47,6.9.44,1.18.93,2.34,1.43,3.5a2.62,2.62,0,0,0,2.24,1.83,2.68,2.68,0,0,0,2.69-1.58,4.17,4.17,0,0,0,.24-.47c.94-2.33,1.9-4.66,2.82-7,.56-1.43,1.12-2.87,1.6-4.33a4.12,4.12,0,0,0-.73-3.8c-.64-.9-1.09-1-2.18-.75a1.92,1.92,0,0,1-1.35-.17,1.26,1.26,0,0,1-.47-1.11,1.55,1.55,0,0,1,1.1-.85,4.26,4.26,0,0,1,1.76.64c3.18,1.69,4,3.79,2.79,7.16-.83,2.33-1.69,4.65-2.47,7-.28.84-.31,1.77-.51,2.64a6.18,6.18,0,0,1-3.23,4.43,1.23,1.23,0,0,0-.53,1,12.89,12.89,0,0,0,7.12,11.41,5.43,5.43,0,0,0,4.89.27C55.18,66.81,55.23,67.76,55.77,68.26Z" transform="translate(-5.03 -20.02)"/>
    <path class="cls-4" d="M50.67,61.65a7.61,7.61,0,0,1-3.43-5.57,8.28,8.28,0,0,1,1.48-6.29,7.15,7.15,0,0,1,7-2.7A9.05,9.05,0,0,0,58.07,47a2.45,2.45,0,0,1,2.64,1.25A2.22,2.22,0,0,1,60,50.92a1.91,1.91,0,0,1-3-.48c-.93-1.6-1.59-1.88-3.4-1.51-5,1-5.63,6-3.91,9a3.39,3.39,0,0,1,.63,1.92A9.05,9.05,0,0,0,50.67,61.65Z" transform="translate(-5.03 -20.02)"/>
    <path class="cls-5" d="M58.38,54.42a4.72,4.72,0,0,1-4.75-3.48c-.15-.48-.47-1.1.23-1.35s.75.46.93.89a4.13,4.13,0,0,0,4.36,2.77A4.2,4.2,0,0,0,62.61,50a4.11,4.11,0,0,0-5.49-4.64c-.11,0-.21.15-.31.14-.34,0-.67-.1-1-.15.17-.3.28-.8.51-.86A7.15,7.15,0,0,1,58.94,44c4.45.53,5.79,4.26,4.58,7.29A5.39,5.39,0,0,1,58.38,54.42Z" transform="translate(-5.03 -20.02)"/>
  </g>
</svg>
