<svg id="Layer_1" data-name="Layer 1" xmlns="http://www.w3.org/2000/svg" viewBox="0 0 89.94 58.36">
  <defs>
    <style>
      .cls-1 {
        fill: #c8ede6;
      }

      .cls-2 {
        fill: #152967;
      }

      .cls-3 {
        fill: #db6e7c;
      }

      .cls-4 {
        fill: #fff;
      }
    </style>
  </defs>
  <title>help</title>
  <path class="cls-1" d="M49.88,79.16c-8.33,0-16.66.06-25,0A34.16,34.16,0,0,1,17,78.32,16.13,16.13,0,0,1,5.1,64.41c-.6-7.42,3-13.77,9.81-16.64,2.29-1,3.47-2.08,3.9-4.7,1-6.26,6.61-10.43,13.27-10.07a5.06,5.06,0,0,0,5.17-2.62,21.41,21.41,0,0,1,24.09-8.65A20.79,20.79,0,0,1,76.63,41.82c0,3.42,1.36,4.26,4.33,4.75,8,1.33,13.63,7.56,14,15A16.08,16.08,0,0,1,83,78.3a33.09,33.09,0,0,1-7.85.82C66.75,79.22,58.31,79.16,49.88,79.16Z" transform="translate(-5.03 -20.82)"/>
  <g>
    <path class="cls-2" d="M49.81,67.9H36.19a4.74,4.74,0,0,1-5.08-3.57c-1.16-3.24-.91-6.57-.43-9.88.19-1.31.57-2.6.8-3.91.14-.76.52-1,1.28-1a31,31,0,0,0,5.19-.61c2.64-.63,3.91-2.53,3.85-5.25s0-2.93,2.73-3.4a30.28,30.28,0,0,1,11.42.15c1.88.4,2.22.74,2,2.49-.39,4,1.68,6,5.73,6.45,1.11.13,2.25.07,3.36.22a1.44,1.44,0,0,1,1,.71,26.81,26.81,0,0,1,.93,12.34,10.65,10.65,0,0,1-1.47,3.53,4,4,0,0,1-3.67,1.74C59.22,67.88,54.51,67.9,49.81,67.9ZM43.62,51.71V56h4.11v4.12H52v-4c.51,0,.83-.1,1.15-.1C56.52,56,56.5,56,56.26,52.6c0-.62-.24-.89-.89-.89-1,0-2.49.33-3-.21s-.23-2-.37-3.07c0-.32-.36-.83-.59-.85-1.18-.08-2.37,0-3.7,0v4.17Z" transform="translate(-5.03 -20.82)"/>
    <path class="cls-3" d="M47.76,32.1c7.75.2,14,.62,20,2.77l.7.27c4.76,1.94,6.34,5.31,4.81,10.23a2.79,2.79,0,0,1-2.59,2.2,57.56,57.56,0,0,1-7.83-.05c-2.43-.24-3.33-1.61-3.27-4,.08-3.31-.47-4.07-3.76-4.73a29.75,29.75,0,0,0-12.4.1c-2.82.63-3.43,1.48-3.35,4.33s-.82,4.15-3.69,4.42a46.07,46.07,0,0,1-7.21,0,2.74,2.74,0,0,1-2.82-2.67,23.09,23.09,0,0,1-.2-4.34c.1-2.32,1.51-3.79,3.44-4.86a25.11,25.11,0,0,1,9.15-2.76C42.22,32.5,45.71,32.28,47.76,32.1Z" transform="translate(-5.03 -20.82)"/>
    <path class="cls-4" d="M43.62,51.71h4.1V47.55c1.33,0,2.52,0,3.7,0,.22,0,.54.53.59.85.14,1.05-.19,2.46.37,3.07s2,.21,3,.21c.65,0,.84.27.89.89C56.5,56,56.52,56,53.19,56c-.32,0-.65.06-1.15.1v4h-4.3V56H43.62Z" transform="translate(-5.03 -20.82)"/>
  </g>
</svg>
