<svg id="Layer_1" data-name="Layer 1" xmlns="http://www.w3.org/2000/svg" viewBox="0 0 87.28 47.77">
  <defs>
    <style>
      .cls-1 {
        fill: #f5814b;
      }

      .cls-2 {
        fill: #0d2a34;
      }
    </style>
  </defs>
  <title>meter</title>
  <g>
    <path class="cls-1" d="M84.88,69c-2.64,0-5.28,0-7.92,0-.55,0-.78-.09-.81-.74a25,25,0,0,0-4-12.54c-.45-.7-.34-1,.29-1.42q6.35-4.55,12.65-9.18c.57-.42.77-.28,1.1.22a43,43,0,0,1,7.1,18.82c.16,1.28.18,2.57.35,3.85.12.87-.23,1-1,1-2.58,0-5.16,0-7.73,0Z" transform="translate(-6.36 -26.12)"/>
    <path class="cls-1" d="M15,69c-2.61,0-5.22,0-7.83,0-.69,0-.89-.18-.86-.89a43.86,43.86,0,0,1,7.43-22.78c.38-.57.61-.62,1.18-.2q6.37,4.69,12.79,9.31c.45.32.57.54.23,1.07a25.36,25.36,0,0,0-4.14,12.79c0,.71-.39.7-.88.7Z" transform="translate(-6.36 -26.12)"/>
    <path class="cls-1" d="M51.1,26.12a44.06,44.06,0,0,1,11,1.69c.57.15.67.39.5.91q-2,6.06-4,12.12c-.34,1-.72,2.08-1,3.14-.14.48-.26.6-.8.46a26.78,26.78,0,0,0-12.65-.24c-1.57.34-1.57.32-2.07-1.22-1.51-4.66-3-9.32-4.55-14-.23-.7-.15-1,.63-1.25A48,48,0,0,1,51.1,26.12Z" transform="translate(-6.36 -26.12)"/>
    <path class="cls-1" d="M35.6,28.57c.32,0,.34.3.41.53l4,12.4c.31,1,.62,1.93.94,2.88.14.43.14.7-.39.91a25.63,25.63,0,0,0-10.93,8c-.4.5-.67.33-1,.05L15.74,44c-.42-.3-.52-.51-.14-1A43,43,0,0,1,29.22,31.39a39.51,39.51,0,0,1,5.86-2.63Z" transform="translate(-6.36 -26.12)"/>
    <path class="cls-1" d="M64.11,47.56a46.64,46.64,0,0,0-4.87-2.34c-.5-.17-.34-.47-.23-.8q1.52-4.67,3-9.35c.63-2,1.31-3.89,1.89-5.85.2-.68.44-.68,1-.46A44.11,44.11,0,0,1,83.35,41.62c.5.58,1.26,1.21,1.28,1.83s-1,.95-1.64,1.39c-3.82,2.81-7.67,5.59-11.5,8.4-.56.41-.85.42-1.31-.15a16.58,16.58,0,0,0-3.74-3.63q1.74-3.17,3.48-6.34c.19-.36.62-.77.17-1.13s-.7.25-1,.46c-.07,0-.11.14-.18.21C67.27,44.26,65.82,46,64.11,47.56Z" transform="translate(-6.36 -26.12)"/>
    <path class="cls-2" d="M64.11,47.56c1.71-1.53,3.16-3.3,4.78-4.91.06-.06.1-.16.18-.21.32-.21.55-.84,1-.46s0,.78-.17,1.13q-1.73,3.17-3.48,6.34l-12.14,22a4.47,4.47,0,0,1-4.66,2.44A4.4,4.4,0,0,1,45.8,71a4.48,4.48,0,0,1,1-5.1L63.4,48.4C63.66,48.14,63.88,47.84,64.11,47.56ZM49.88,71.34A1.94,1.94,0,0,0,52,69.48,2,2,0,1,0,48,69.33,2,2,0,0,0,49.88,71.34Z" transform="translate(-6.36 -26.12)"/>
  </g>
</svg>
