<svg id="Layer_1" data-name="Layer 1" xmlns="http://www.w3.org/2000/svg" viewBox="0 0 138.25 68.85">
  <defs>
    <style>
      .cls-1 {
        fill: #f5814b;
      }
    </style>
  </defs>
  <title>pannouncement</title>
  <g>
    <path class="cls-1" d="M45.87,55.35l-4.74-.59c-2.18-.27-4.37-.55-6.55-.79a1.64,1.64,0,0,0-.89.19,1.65,1.65,0,0,1-1.48-.09.58.58,0,0,1-.23-.45c0-.7,0-1.41,0-2.11,0-.25-.08-.35-.32-.42a2.51,2.51,0,0,0-1.89.09,47,47,0,0,0-9.09,5A8.33,8.33,0,0,1,9.57,54.9a17.21,17.21,0,0,1-4.44-10,21.76,21.76,0,0,1,.75-9.22,14.61,14.61,0,0,1,5-7.6A8.19,8.19,0,0,1,20.69,28a42,42,0,0,0,16.8,7.22c.64.12,1.29.22,1.94.28a3.68,3.68,0,0,1,2,.87,1.1,1.1,0,0,0,.61.28c1.86,0,2.87,1.12,3.55,2.65A7.27,7.27,0,0,1,46,43.54c0,.16-.16.29-.22.45s-.18.56-.26.85a1.93,1.93,0,0,1,0,.27,3.63,3.63,0,0,1-3.31,2.4A1.22,1.22,0,0,0,41,48.67c0,.85,0,1.71,0,2.6l4.83.26c0-.22,0-.39,0-.55,0-1.72,0-3.44,0-5.15a1,1,0,0,1,.51-.92,6.52,6.52,0,0,1,5.44-.64,6.35,6.35,0,0,1,1.49.75.82.82,0,0,1,.36.8c0,1.89,0,3.77,0,5.7.51,0,1,0,1.49,0,1,0,2-.12,3-.17.3,0,.39-.14.39-.44,0-.79,0-1.58,0-2.37,0-.4-.71-1-1.2-1a3.55,3.55,0,0,1-3.33-2.37c-.13-.27,0-.69-.18-.92a4.07,4.07,0,0,1-.44-2.87,5.47,5.47,0,0,1,1.88-3.95,3.23,3.23,0,0,1,1.89-.72,2,2,0,0,0,.92-.34,4.14,4.14,0,0,1,1.91-.81,38.1,38.1,0,0,0,11.51-3.29A46.46,46.46,0,0,0,79,28a8,8,0,0,1,6.31-1.37,9.34,9.34,0,0,1,5.85,4,18.62,18.62,0,0,1,3.51,11.24A19.91,19.91,0,0,1,93,50.44a12.71,12.71,0,0,1-5.16,6.19A7.87,7.87,0,0,1,79,56.22,49.33,49.33,0,0,0,69.35,51c-.58-.23-1.06.06-1.57.19-.07,0-.12.23-.12.35,0,.69,0,1.37,0,2.06a.5.5,0,0,1-.42.57,1.59,1.59,0,0,1-1.39-.06A1.93,1.93,0,0,0,64.47,54L53.92,55.29l-.26.05c0,1.23,0,2.46,0,3.69a1.14,1.14,0,0,1-.87,1.3.56.56,0,0,0-.44.64q0,10.47,0,20.94a.81.81,0,0,0,.53.87,1.19,1.19,0,0,1,.78,1.31c0,3,0,5.9,0,8.85a1,1,0,0,1-.78,1.17,7.67,7.67,0,0,1-3.59.49,13.23,13.23,0,0,1-2.48-.44c-.78-.21-.95-.55-.95-1.34,0-3,0-5.9,0-8.85a1.07,1.07,0,0,1,.7-1.14,1,1,0,0,0,.66-1.07q0-10.4,0-20.8a.53.53,0,0,0-.45-.62c-.71-.23-.89-.54-.89-1.29C45.87,57.84,45.87,56.63,45.87,55.35Zm-19.4-14c0-.56-.08-1.34-.18-2.11a17,17,0,0,0-4.21-9.61,8.05,8.05,0,0,0-11.62-.75,14.84,14.84,0,0,0-4.11,6.49,21.56,21.56,0,0,0-.54,11.5,15.41,15.41,0,0,0,4.67,8.42,7.9,7.9,0,0,0,9.78.8,12.52,12.52,0,0,0,3.94-4.51A19.86,19.86,0,0,0,26.47,41.34Zm46.73.73h-.13c.21,1.61.32,3.23.66,4.81a15.21,15.21,0,0,0,4.74,8.47,7.83,7.83,0,0,0,9.63.73,13.1,13.1,0,0,0,4.71-6,20.08,20.08,0,0,0,1.53-8.83A18.25,18.25,0,0,0,91.2,31.15a9.85,9.85,0,0,0-4.87-4,7.69,7.69,0,0,0-5.7.24,10.75,10.75,0,0,0-4.77,4.49A18.83,18.83,0,0,0,73.2,42.08Zm-16.54-3c-1,4,0,7.73,2.26,8.8V42.19l2.08.1c0,1.43,0,2.81,0,4.18q0,2.59,0,5.19c0,.2-.07.47.33.4V41.93H59.57a9.12,9.12,0,0,1,.78-3.67,6.26,6.26,0,0,1,2.33-2.78c-.73.08-1.43.25-2.14.29a3.65,3.65,0,0,0-3,1.75,1.12,1.12,0,0,1-1.14.56c-.71,0-.91.13-1.13.86ZM40.73,47.84l.2,0c2.76-2.41,2.93-5.47,2.1-8.82l1.34-.14c-.23-.75-.4-.89-1.2-.86a1,1,0,0,1-1-.46,3.64,3.64,0,0,0-3.08-1.83,5.11,5.11,0,0,1-.69-.1l-.74-.12L37,35.46a6.48,6.48,0,0,1,2.34,2.84,9.3,9.3,0,0,1,.77,3.62l.64,0ZM49.32,83V62h-.77V83ZM37.77,51.47l-.27-.06c-1.69-.42-3.4-.81-5.08-1.27a2.2,2.2,0,0,0-1.63.39l1.51.4c0,.75,0,1.48,0,2.21s0,.78.87.77V51.14l2.32.56c.7.17,1.39.36,2.09.51.55.12.76-.06.76-.57q0-4.57,0-9.13V42a.59.59,0,0,0-.56.68q0,2.32,0,4.64a1,1,0,0,1-.3.67,11.81,11.81,0,0,1-1.14.84l1.43-.27ZM63.63,35.83c.13.62.23.69.75.55L73.12,34a.57.57,0,0,0,.32-.17c.36-.57.7-1.15,1-1.72A56.33,56.33,0,0,1,63.63,35.83ZM49.69,46.16c.83-.16,1.62-.28,2.4-.48.22-.06.37-.35.56-.54-.18-.17-.33-.43-.55-.5a6.7,6.7,0,0,0-4.66,0c-.2.08-.47.32-.47.49s.27.43.46.49C48.17,45.86,48.93,46,49.69,46.16Zm-1.81,9.51L48,55.6c0-1.11,0-2.21,0-3.32a.41.41,0,0,0-.16-.29c-.26-.16-.54-.29-.81-.44l-.11.13.56.49c-2.59-.13-5.17-.26-7.75-.38a2.42,2.42,0,0,0-.7.19l0,.14,8.36.68c.07.81.13,1.58.22,2.35A2.09,2.09,0,0,0,47.88,55.67ZM46.24,92.89a.63.63,0,0,0,.46.85,11.25,11.25,0,0,0,2,.5,8.16,8.16,0,0,0,4-.41c.6-.23.69-.41.61-.93A8.43,8.43,0,0,1,46.24,92.89Zm7.12-47a6.16,6.16,0,0,1-3.56.83,5.91,5.91,0,0,1-3.55-.84.75.75,0,0,0,.55,1,8.6,8.6,0,0,0,1.62.42A9.26,9.26,0,0,0,52.56,47C53.25,46.76,53.38,46.57,53.35,45.91Zm0,13.19a8.53,8.53,0,0,1-7.11,0c-.05.55,0,.69.62.93a8.59,8.59,0,0,0,4.23.39A9,9,0,0,0,52.85,60,.66.66,0,0,0,53.36,59.09Zm-1.4-4c0-.82,0-1.58,0-2.34,0-.42.13-.6.53-.61L56.81,52c.89,0,1.77-.1,2.66-.15l0-.18a3.08,3.08,0,0,0-.75-.15c-1.88.1-3.77.23-5.65.33a2.6,2.6,0,0,1-.68-.19C51.6,52,51.6,52,51.6,53s0,1.79,0,2.75l1.09-.55,0-.08Zm-3.76-3.35V47.48l-.81-.14v3.33C47.38,51.46,47.38,51.46,48.19,51.77ZM47.53,82.7l-.13-.06c-.16.19-.46.4-.44.56a.84.84,0,0,0,.52.51,6.94,6.94,0,0,0,4.68,0c.2-.07.46-.32.46-.49s-.26-.38-.41-.57a1,1,0,0,1-.81.87,5.66,5.66,0,0,1-3.23,0A.73.73,0,0,1,47.53,82.7ZM47.41,56v3.34l.81.22c0-.91,0-1.75,0-2.58S48.22,56.22,47.41,56ZM68,50.19c-.5-.37-.9-.14-1.3,0l-4.46,1.07c-.22.05-.53.07-.34.48Zm-3.16-.51v-.12L62.2,49v1.37Zm-30.09-.11v.12l2.64.65V49Zm25.66-5.87L59.9,43c-.13.21-.38.42-.38.64s.23.45.36.67Zm-20.27,0c0-.14,0-.27-.07-.34s-.26-.33-.4-.33-.42.54-.27.92c.06.15.26.25.41.34s.16-.1.19-.17A2.89,2.89,0,0,0,40.17,43.73Zm4.39,1.16c.58,0,.8-.27.89-1.26l-.42-.1Zm9.62-1.25c.17,1.11.34,1.33.9,1.23l-.47-1.35Zm12.28,7.51a5.58,5.58,0,0,0,0,2.82Zm-4.59-3.07,0,.53.92.14,0-.09Z" transform="translate(19.6 -25.79)"/>
    <path class="cls-1" d="M107.65,41l11-2.44,0,.07L104.17,42.9l-.05-.08,2.13-2.22-9.72,1.71,0-.09,16.57-4.51,0,.08-5.48,3.12Z" transform="translate(19.6 -25.79)"/>
    <path class="cls-1" d="M2.22,42.31l-9.61-1.69-.08.1,2.24,2-.17.23-14.2-4.18,0-.09L-8.94,41l0-.08-5.47-3.12,0-.08L2.24,42.22Z" transform="translate(19.6 -25.79)"/>
    <path class="cls-1" d="M103.67,34l1-2.55-7.51,4.77,0-.06,12.22-9.46.07.06-3.46,4.46.05.05,7.77-5.44.06.09-10.1,8.15Z" transform="translate(19.6 -25.79)"/>
    <path class="cls-1" d="M-10.64,26.71,1.29,35.95,1.22,36l-7-4.44-.1.06,1,2.42-.07,0-10.22-8.25.06-.08,7.82,5.46.07-.07-3.43-4.42Z" transform="translate(19.6 -25.79)"/>
    <path class="cls-1" d="M103.12,50.77l2.46-.44,0-.08-7.86-3.57,0-.09,14.41,5v.1l-5.48-.43,0,.1L115.59,55l0,.08-12.45-4.17Z" transform="translate(19.6 -25.79)"/>
    <path class="cls-1" d="M.79,46.77l-7.64,3.47v.1l2.43.44,0,.1L-16.61,55l0-.09,8.71-3.51,0-.1-5.5.44,0-.09L.73,46.67Z" transform="translate(19.6 -25.79)"/>
    <path class="cls-1" d="M6.47,42A16.92,16.92,0,0,1,9,32.83a9.59,9.59,0,0,1,3.85-3.66,6.31,6.31,0,0,1,7.3,1.29,13.66,13.66,0,0,1,4,7.36A18.45,18.45,0,0,1,23.1,49.5a11.48,11.48,0,0,1-3.92,4.92A6.17,6.17,0,0,1,11.42,54,13.48,13.48,0,0,1,7.1,46.91a17.65,17.65,0,0,1-.45-2.34C6.54,43.73,6.53,42.89,6.47,42ZM21,45.44a8.31,8.31,0,0,1,.9.06.72.72,0,0,0,.82-.4,7.55,7.55,0,0,0,.71-1.7,4.76,4.76,0,0,0-1-4.29.83.83,0,0,0-.59-.25c-1.09.05-2.18.12-3.26.24a2.06,2.06,0,0,0-1,.45,3.44,3.44,0,0,0-1,3.63,2.47,2.47,0,0,0,2.55,2.13Zm-9.28,8a.31.31,0,0,0,.06.08l.23.15a7.53,7.53,0,0,0,5.69.79,2.11,2.11,0,0,0,1.45-1c.39-.7.87-1.35,1.31-2l-2.52-.49a.41.41,0,0,0-.22,0l-1.85.78.21.5a1.3,1.3,0,0,0-1.53.09l.19.49c-.46,0-.86-.48-1.28,0l.25.57A1.91,1.91,0,0,0,11.72,53.42Z" transform="translate(19.6 -25.79)"/>
    <path class="cls-1" d="M93.17,41.66c0,4-.82,7.33-3,10.29a8.65,8.65,0,0,1-4.05,3.28,6.16,6.16,0,0,1-6.53-1.49,13.56,13.56,0,0,1-4.17-7.63,19,19,0,0,1,.52-10,13,13,0,0,1,3.68-5.78c3-2.62,6.72-2.39,9.51.57A14.82,14.82,0,0,1,93,39.56C93.11,40.37,93.14,41.2,93.17,41.66Zm-4.44,10c-.25.61.32.54.51.81a9.48,9.48,0,0,0,2.24-3.56c-.43-.34-.74-.08-1.06.19l.07-.48c-.34-.12-.65-.24-1-.33-1.11-.32-2.21-.64-3.33-.94a.56.56,0,0,0-.48.12c-.46.57-.89,1.16-1.35,1.78l3.29,2.16.46-.39C88.16,51.87,88.17,51.88,88.73,51.61ZM79.32,45.4c.54,0,1.06-.08,1.57-.1a2,2,0,0,0,1.6-.83A3.75,3.75,0,0,0,83.08,41a2.47,2.47,0,0,0-2.41-2c-.45,0-.9-.06-1.35-.1a2,2,0,0,0-2.17,1.22,4,4,0,0,0,.09,3.9C77.7,44.8,78.25,45.58,79.32,45.4Z" transform="translate(19.6 -25.79)"/>
    <path class="cls-1" d="M16.63,42.24a2.93,2.93,0,0,1,.63-2,1.58,1.58,0,0,1,2.54,0,3.16,3.16,0,0,1-.07,4,1.58,1.58,0,0,1-2.48-.12A2.82,2.82,0,0,1,16.63,42.24Zm1.24-.05a.7.7,0,0,0,.59.77c.33,0,.61-.37.61-.8a.74.74,0,0,0-.6-.78C18.15,41.37,17.87,41.75,17.87,42.19Z" transform="translate(19.6 -25.79)"/>
    <path class="cls-1" d="M83,42.19a2.8,2.8,0,0,1-.9,2.17,1.51,1.51,0,0,1-2,0,3.11,3.11,0,0,1-.18-4.23,1.6,1.6,0,0,1,2.57.2A3,3,0,0,1,83,42.19Zm-1.26,0c0-.44-.25-.83-.57-.83s-.59.35-.61.76a.73.73,0,0,0,.58.82C81.51,43,81.76,42.65,81.77,42.21Z" transform="translate(19.6 -25.79)"/>
    <path class="cls-1" d="M18.48,41.74c.12.18.24.28.23.36a1.22,1.22,0,0,1-.18.37c-.08-.1-.22-.18-.23-.29S18.38,42,18.48,41.74Z" transform="translate(19.6 -25.79)"/>
    <path class="cls-1" d="M81.58,42.27c-.18.08-.31.19-.42.18a.36.36,0,0,1-.22-.28c0-.1.13-.2.21-.3Z" transform="translate(19.6 -25.79)"/>
  </g>
</svg>
