<svg id="Layer_1" data-name="Layer 1" xmlns="http://www.w3.org/2000/svg" viewBox="0 0 52 90.16">
  <defs>
    <style>
      .cls-1 {
        fill: #fff;
      }
    </style>
  </defs>
  <title>right</title>
  <path class="cls-1" d="M60.44,50.06C51.76,41.71,43.7,34,35.69,26.23c-3.1-3-6.12-6.1-9.13-9.2C23.37,13.75,23.18,9.76,26,6.93s6.89-2.69,10.1.51Q54.81,26,73.44,44.75c3.44,3.45,3.4,7.08,0,10.52Q54.76,74,36,92.58C32.84,95.77,28.78,95.9,26,93s-2.63-6.82.62-10.08Q41.65,67.82,56.78,52.77A37.62,37.62,0,0,1,60.44,50.06Z" transform="translate(-24 -4.92)"/>
</svg>
