<svg id="Layer_1" data-name="Layer 1" xmlns="http://www.w3.org/2000/svg" viewBox="0 0 98.58 93.59">
  <defs>
    <style>
      .cls-1 {
        fill: #f5814b;
      }
    </style>
  </defs>
  <title>route</title>
  <g>
    <path class="cls-1" d="M43.63,54.53l1.72-2.88c.26.18.55.38.83.59Q62.51,64.51,78.83,76.77a3.58,3.58,0,0,0,4,.48,3.65,3.65,0,0,0,2-3.53c0-10.75,0-21.5,0-32.25a3.85,3.85,0,0,0-.48-1.63c-3-5.92-6-11.85-9-17.74a12.92,12.92,0,0,1,6-17.79A12.61,12.61,0,0,1,95.74,7.14a12.87,12.87,0,0,1,2.18,14.67c-3,5.93-6,11.82-9,17.76a6.13,6.13,0,0,0-.65,2.62c0,10.47,0,20.95,0,31.42,0,3.85-2.25,6.68-5.85,7.32a6.68,6.68,0,0,1-5.35-1.26Q64.32,70.14,51.62,60.57L44.4,55.15C44.13,54.95,43.88,54.73,43.63,54.53Zm50.61-39.2a7.67,7.67,0,1,0-7.83,7.57A7.71,7.71,0,0,0,94.25,15.33Z" transform="translate(-0.71 -3.21)"/>
    <path class="cls-1" d="M15.18,93.93l.59-3.4H44.31l-3.07-6.07c-.93-1.83-1.92-3.63-2.77-5.49a8,8,0,0,1,1.26-9A7.73,7.73,0,0,1,48,67.37a7.91,7.91,0,0,1,6,6.33,8.35,8.35,0,0,1-.87,5.86C51,83.63,49,87.72,46.9,91.8a3.59,3.59,0,0,0-.32.64,2,2,0,0,1-2.24,1.5c-5.82,0-11.63,0-17.45,0H15.18ZM45.89,80.47a5.3,5.3,0,1,0,0-10.6,5.3,5.3,0,0,0,0,10.6Z" transform="translate(-0.71 -3.21)"/>
    <path class="cls-1" d="M29.57,53.89l2.52,2.34L13.41,84.72l-2.71-2Z" transform="translate(-0.71 -3.21)"/>
    <path class="cls-1" d="M.71,90.8a6,6,0,1,1,6,6A6,6,0,0,1,.71,90.8Z" transform="translate(-0.71 -3.21)"/>
    <path class="cls-1" d="M37,42.57a6,6,0,1,1-6.09,5.91A5.94,5.94,0,0,1,37,42.57Z" transform="translate(-0.71 -3.21)"/>
  </g>
</svg>
