<svg id="Layer_1" data-name="Layer 1" xmlns="http://www.w3.org/2000/svg" viewBox="0 0 87.31 97.13">
  <defs>
    <style>
      .cls-1 {
        fill: #f5814b;
      }
    </style>
  </defs>
  <title>sign-board</title>
  <path class="cls-1" d="M22.94,13.12V5.22c-.39,0-.77-.05-1.14-.05H9.16A2.32,2.32,0,0,1,6.57,3,2.26,2.26,0,0,1,8.3.63,5.67,5.67,0,0,1,9.57.53H82.46a11,11,0,0,1,8.87,4,11.24,11.24,0,0,1,2.53,7.55q0,32.37,0,64.74,0,9.06,0,18.12c0,1.54-.68,2.45-1.92,2.69a2.27,2.27,0,0,1-2.7-2,11.7,11.7,0,0,1,0-1.39q0-41.11,0-82.21c0-4.49-2.56-7-7-7H63.7V13h1.2c3.29,0,6.57,0,9.86,0S80,14.91,80,18.23Q80,36.62,80,55c0,3.31-1.94,5.24-5.27,5.24H11.82c-3.31,0-5.27-2-5.27-5.27q0-18.28,0-36.55c0-3.35,2-5.3,5.37-5.3h11ZM11.29,17.79V55.48h64V17.79Zm16.42-4.9h31.2V5.09H27.71Z" transform="translate(-6.55 -0.52)"/>
  <rect class="cls-1" x="6.24" y="19.36" width="60.55" height="33.8"/>
</svg>
