<svg id="Layer_1" data-name="Layer 1" xmlns="http://www.w3.org/2000/svg" viewBox="0 0 52.32 102.68">
  <defs>
    <style>
      .cls-1 {
        fill: #f5814b;
      }
    </style>
  </defs>
  <title>sos</title>
  <g>
    <path class="cls-1" d="M23.85,49.06q0-22.12,0-44.24a6.84,6.84,0,0,1,7-7q19.11-.1,38.23,0a6.88,6.88,0,0,1,7,7.2q0,44,0,88.1A6.93,6.93,0,0,1,69,100.4q-19,.09-38,0a6.92,6.92,0,0,1-7.13-7.3Q23.83,71.08,23.85,49.06Zm3.9-.63h0q0,18.63,0,37.25c0,1.59.13,2.74,2.23,2.73q20-.09,40,0c1.71,0,2.24-.7,2.24-2.32q0-37.45,0-74.9c0-2.56-.19-2.71-2.8-2.71H31c-3.13,0-3.24.1-3.24,3.28Q27.74,30.09,27.75,48.43ZM53.52,94.72a3.52,3.52,0,1,0-7,.1,3.52,3.52,0,1,0,7-.1ZM40.62,2.84l0,.5H59.39v-.5Z" transform="translate(-23.84 2.24)"/>
    <path class="cls-1" d="M50,77.6A12.74,12.74,0,0,1,37.25,65a12.76,12.76,0,1,1,25.51,0A12.76,12.76,0,0,1,50,77.6Zm-.08-23.77A11.06,11.06,0,0,0,38.83,65.07a11.17,11.17,0,1,0,22.35-.13A11.07,11.07,0,0,0,49.95,53.83Z" transform="translate(-23.84 2.24)"/>
    <path class="cls-1" d="M48.54,56c.42,1.1.9,2.2,1.24,3.34a1.25,1.25,0,0,1-.34,1.13c-1.76.9-1.46,2.32-.88,3.65a22.93,22.93,0,0,0,2.28,4c.29.41,1.07.56,1.65.66s1.47-.25,1.71,0a13.07,13.07,0,0,1,1.78,3c.09.19-.38.76-.71,1a4.5,4.5,0,0,1-5.87-.28,16.75,16.75,0,0,1-5.56-11.16C43.57,58.66,44.87,57.26,48.54,56Z" transform="translate(-23.84 2.24)"/>
  </g>
  <g>
    <path class="cls-1" d="M39.23,24.78a1,1,0,0,0-.51-.73,2,2,0,0,0-.91-.19c-.78,0-1.12.22-1.12.61,0,1.62,6.21.61,6.21,4.54,0,2.5-2.08,3.72-5.05,3.72s-4.71-1.66-4.78-3.61h3.39A1.23,1.23,0,0,0,37,30a1.94,1.94,0,0,0,1,.27c.88,0,1.47-.28,1.47-.79,0-1.63-6.21-.51-6.21-4.63,0-2.29,2-3.45,4.68-3.45,3,0,4.36,1.53,4.62,3.42Z" transform="translate(-23.84 2.24)"/>
    <path class="cls-1" d="M55.66,27A5.38,5.38,0,0,1,50,32.72c-3.39,0-5.65-2.1-5.65-5.77A5.31,5.31,0,0,1,50,21.36,5.36,5.36,0,0,1,55.66,27Zm-7.78,0c0,1.38.42,3.1,2.11,3.1,1.53,0,2.13-1.32,2.13-3.1,0-1.47-.6-3-2.16-3S47.88,25.62,47.88,27Z" transform="translate(-23.84 2.24)"/>
    <path class="cls-1" d="M63.29,24.78a1,1,0,0,0-.51-.73,2,2,0,0,0-.91-.19c-.78,0-1.12.22-1.12.61,0,1.62,6.21.61,6.21,4.54,0,2.5-2.08,3.72-5.05,3.72s-4.71-1.66-4.78-3.61H60.5a1.23,1.23,0,0,0,.58.85,1.94,1.94,0,0,0,1,.27c.88,0,1.47-.28,1.47-.79,0-1.63-6.21-.51-6.21-4.63,0-2.29,2-3.45,4.68-3.45,3,0,4.36,1.53,4.62,3.42Z" transform="translate(-23.84 2.24)"/>
  </g>
</svg>
