<svg id="Layer_1" data-name="Layer 1" xmlns="http://www.w3.org/2000/svg" viewBox="0 0 90.42 57.97">
  <defs>
    <style>
      .cls-1 {
        fill: #0e3b62;
      }

      .cls-2 {
        fill: #fea000;
      }
    </style>
  </defs>
  <title>weather</title>
  <g>
    <path class="cls-1" d="M29.48,56.86A10.5,10.5,0,0,1,45.27,48c.06-.24.13-.45.17-.68a18.18,18.18,0,0,1,35.91.2c.11.72,0,1.65.41,2.11s1.33.29,2,.44a14.59,14.59,0,0,1,2,27.89,15.42,15.42,0,0,1-5.11,1Q54.3,79,27.93,79a11,11,0,0,1-9.94-16c2.07-4.09,5.57-6.06,10.18-6l1.15,0A.45.45,0,0,0,29.48,56.86Z" transform="translate(-4.79 -21.01)"/>
    <path class="cls-2" d="M43,43.49c-1.2-.24-2.23-.51-3.27-.64A12,12,0,0,0,26.41,53.47c0,.09,0,.18,0,.27-.12,1.19-.12,1.09-1.29,1.12a32.18,32.18,0,0,0-4.12.41,1.37,1.37,0,0,1-1.4-.43A13.54,13.54,0,1,1,42.78,42.56C42.85,42.83,42.89,43.12,43,43.49Z" transform="translate(-4.79 -21.01)"/>
    <path class="cls-2" d="M6.22,54.77l6.49-5.53,2.12,5.43L6.31,55Z" transform="translate(-4.79 -21.01)"/>
    <path class="cls-2" d="M37.94,30.64l7.23-4.55.2.15L42.5,34.29Z" transform="translate(-4.79 -21.01)"/>
    <path class="cls-2" d="M4.82,41.88l8.39-1.57-.84,5.79-7.58-4Z" transform="translate(-4.79 -21.01)"/>
    <path class="cls-2" d="M35,29.35l-5.76-.83L33.21,21h.29Z" transform="translate(-4.79 -21.01)"/>
    <path class="cls-2" d="M20.69,31l-.31-8.43.28-.12,5.48,6.42Z" transform="translate(-4.79 -21.01)"/>
    <path class="cls-2" d="M18.14,32.85l-3.63,4.56L9.91,30.18,10,30Z" transform="translate(-4.79 -21.01)"/>
    <path class="cls-2" d="M45.77,40l-1.48-3.14h2.87Z" transform="translate(-4.79 -21.01)"/>
  </g>
</svg>
