<svg id="Layer_1" data-name="Layer 1" xmlns="http://www.w3.org/2000/svg" viewBox="0 0 88.49 94.98">
  <defs>
    <style>
      .cls-1 {
        fill: #f5814b;
      }
    </style>
  </defs>
  <title>wifi</title>
  <g>
    <path class="cls-1" d="M5.76,67.25q0-5,0-9.91a8.7,8.7,0,0,1,9-9c3.66,0,7.32,0,11,0A1.56,1.56,0,0,0,27,47.78a30.11,30.11,0,0,1,45.93,0,1.48,1.48,0,0,0,1.26.58c3.69,0,7.38,0,11.07,0a8.69,8.69,0,0,1,8.94,8.91q0,10,0,20.07a8.69,8.69,0,0,1-9,8.94c-3.69,0-7.38,0-11.07,0a1.75,1.75,0,0,0-1.16.54,30.2,30.2,0,0,1-46,0,1.75,1.75,0,0,0-1.17-.53c-3.69,0-7.38,0-11.07,0a8.7,8.7,0,0,1-9-9Q5.75,72.29,5.76,67.25ZM43.17,82.68l.48,0q18,0,36,0a11.88,11.88,0,0,0,2.77-.35c4.34-1.06,7.32-4.56,7.35-8.63,0-4.27,0-8.53,0-12.8a8,8,0,0,0-2-5.3,10.33,10.33,0,0,0-8.16-3.67q-9.78,0-19.57,0a12.39,12.39,0,0,0-2.69.33A9.29,9.29,0,0,0,50,61.69c.15,3.74-.07,7.49.06,11.23S47.05,81.53,43.17,82.68ZM33.52,56.78,29.81,73.21c-.14-.44-.2-.64-.26-.84l-3.65-14c-.45-1.74-.45-1.74-2.27-1.63a1.36,1.36,0,0,0-.23.07L19.2,72.9a13.7,13.7,0,0,1-.74-2.49q-1.46-6.48-2.94-13c-.06-.25-.26-.65-.42-.66-.91-.06-1.83,0-2.83,0l5.17,21.16c.81,0,1.55,0,2.29,0,.57,0,.82-.14,1-.71.55-2.13,1.15-4.25,1.74-6.37l2-7.35a27.37,27.37,0,0,1,1.06,3.38c.9,3.43,1.8,6.86,2.72,10.29.07.28.36.68.57.7.87.08,1.75,0,2.66,0l5.16-21.14Zm8.78,21.09v-15H39.44v15Zm0-21.06H39.45v2.88h2.88Z" transform="translate(-5.76 -2.51)"/>
    <path class="cls-1" d="M52.22,2.51c8.61.14,17.93,3.9,25.71,11.43a2.81,2.81,0,0,1,.43,3.86,2.87,2.87,0,0,1-4.28.3,56.51,56.51,0,0,0-6.29-4.92,34,34,0,0,0-41.64,4.63,4.33,4.33,0,0,1-1.88,1.06,2.68,2.68,0,0,1-2.92-1.54,2.76,2.76,0,0,1,.57-3.26A39.21,39.21,0,0,1,33.16,6.22C38.5,3.73,44.13,2.49,52.22,2.51Z" transform="translate(-5.76 -2.51)"/>
    <path class="cls-1" d="M50,13.59a28.53,28.53,0,0,1,20.06,8.17,2.83,2.83,0,1,1-3.9,4.09,23,23,0,0,0-32.3,0A2.84,2.84,0,1,1,30,21.73,28.51,28.51,0,0,1,50,13.59Z" transform="translate(-5.76 -2.51)"/>
    <path class="cls-1" d="M50,24.69A17.52,17.52,0,0,1,62.38,29.8,2.76,2.76,0,0,1,63,33.07a2.7,2.7,0,0,1-2.85,1.54,3.52,3.52,0,0,1-1.66-.8c-5.18-4.66-11.71-4.66-16.89,0a2.82,2.82,0,1,1-3.88-4.08A17.53,17.53,0,0,1,50,24.69Z" transform="translate(-5.76 -2.51)"/>
    <path class="cls-1" d="M71.16,66.25v2.81H62.5V77.9H59.58v-21H72.77v2.72H62.57v6.64Z" transform="translate(-5.76 -2.51)"/>
    <path class="cls-1" d="M76.35,62.93H79.2v15H76.35Z" transform="translate(-5.76 -2.51)"/>
    <path class="cls-1" d="M76.34,56.89h2.87v2.84H76.34Z" transform="translate(-5.76 -2.51)"/>
  </g>
</svg>
